{"accessors" : [{"bufferView" : 0, "byteOffset" : 0, "componentType" : 5123, "count" : 4872, "type" : "SCALAR", "max" : [4871], "min" : [0]}, {"bufferView" : 1, "byteOffset" : 0, "componentType" : 5126, "count" : 4872, "type" : "VEC3", "max" : [425.64410400390625, 425.6440734863281, 712.2863159179688], "min" : [-425.64410400390625, -425.6441345214844, 31.279932022094727]}, {"bufferView" : 1, "byteOffset" : 12, "componentType" : 5126, "count" : 4872, "type" : "VEC3", "max" : [0.9926767945289612, 0.9926767945289612, 1.0000044107437134], "min" : [-0.9926766753196716, -0.9926767349243164, -0.9891034364700317]}, {"bufferView" : 1, "byteOffset" : 24, "componentType" : 5126, "count" : 4872, "type" : "VEC2", "max" : [3.125, 0.4706522226333618], "min" : [-1.7881393432617188E-07, -1.026082158088684]}, {"bufferView" : 0, "byteOffset" : 9744, "componentType" : 5123, "count" : 1560, "type" : "SCALAR", "max" : [1559], "min" : [0]}, {"bufferView" : 2, "byteOffset" : 0, "componentType" : 5126, "count" : 1560, "type" : "VEC3", "max" : [425.64410400390625, 425.6440734863281, 248.5796356201172], "min" : [-425.64410400390625, -425.6441345214844, -2.7000991394743323E-05]}, {"bufferView" : 2, "byteOffset" : 12, "componentType" : 5126, "count" : 1560, "type" : "VEC3", "max" : [0.9664667844772339, 0.9664669632911682, -0.2568068206310272], "min" : [-0.9664670825004578, -0.9664669632911682, -1.0000044107437134]}, {"bufferView" : 2, "byteOffset" : 24, "componentType" : 5126, "count" : 1560, "type" : "VEC2", "max" : [3.125, 0.5395776033401489], "min" : [-1.5, -0.008167445659637451]}, {"bufferView" : 0, "byteOffset" : 12864, "componentType" : 5123, "count" : 7680, "type" : "SCALAR", "max" : [7679], "min" : [0]}, {"bufferView" : 3, "byteOffset" : 0, "componentType" : 5126, "count" : 7680, "type" : "VEC3", "max" : [338.91357421875, 340.81414794921875, 732.2965698242188], "min" : [-338.91357421875, -340.814208984375, 652.8447265625]}, {"bufferView" : 3, "byteOffset" : 12, "componentType" : 5126, "count" : 7680, "type" : "VEC3", "max" : [0.7040567398071289, 0.6858344078063965, 0.9999997019767761], "min" : [-0.6655391454696655, -0.6527025699615479, 0.633110523223877]}, {"bufferView" : 3, "byteOffset" : 24, "componentType" : 5126, "count" : 7680, "type" : "VEC2", "max" : [0.9890943169593811, -0.01090577058494091], "min" : [0.01090577058494091, -0.9890943169593811]}, {"bufferView" : 0, "byteOffset" : 28224, "componentType" : 5123, "count" : 34686, "type" : "SCALAR", "max" : [34685], "min" : [0]}, {"bufferView" : 4, "byteOffset" : 0, "componentType" : 5126, "count" : 34686, "type" : "VEC3", "max" : [147.58433532714844, 148.243896484375, 1753.2354736328125], "min" : [-147.1210174560547, -145.8924102783203, -7.450691223144531]}, {"bufferView" : 4, "byteOffset" : 12, "componentType" : 5126, "count" : 34686, "type" : "VEC3", "max" : [1.0000016689300537, 0.9999729990959167, 0.4424554705619812], "min" : [-1.0000016689300537, -0.9999398589134216, -1.0000042915344238]}, {"bufferView" : 4, "byteOffset" : 24, "componentType" : 5126, "count" : 34686, "type" : "VEC2", "max" : [1, -0], "min" : [0, -0.9980040192604065]}, {"bufferView" : 0, "byteOffset" : 97596, "componentType" : 5123, "count" : 28440, "type" : "SCALAR", "max" : [28439], "min" : [0]}, {"bufferView" : 5, "byteOffset" : 0, "componentType" : 5126, "count" : 28440, "type" : "VEC3", "max" : [681.3367309570312, 607.6589965820312, 2815.962646484375], "min" : [-675.5936279296875, -663.4334106445312, 642.4212646484375]}, {"bufferView" : 5, "byteOffset" : 12, "componentType" : 5126, "count" : 28440, "type" : "VEC3", "max" : [1.0000039339065552, 0.9998465180397034, 0.9993200302124023], "min" : [-0.9999265074729919, -0.9998147487640381, -0.9995841979980469]}, {"bufferView" : 5, "byteOffset" : 24, "componentType" : 5126, "count" : 28440, "type" : "VEC2", "max" : [1, -0], "min" : [0, -0.9980040788650513]}, {"bufferView" : 0, "byteOffset" : 154476, "componentType" : 5125, "count" : 109350, "type" : "SCALAR", "max" : [109349], "min" : [0]}, {"bufferView" : 6, "byteOffset" : 0, "componentType" : 5126, "count" : 109350, "type" : "VEC3", "max" : [735.2335205078125, 700.058349609375, 2890.753173828125], "min" : [-765.1005249023438, -752.3869018554688, 704.880615234375]}, {"bufferView" : 6, "byteOffset" : 12, "componentType" : 5126, "count" : 109350, "type" : "VEC3", "max" : [0.9999127984046936, 0.999817967414856, 0.9999753832817078], "min" : [-0.9998056888580322, -0.9999889731407166, -0.9955328106880188]}, {"bufferView" : 6, "byteOffset" : 24, "componentType" : 5126, "count" : 109350, "type" : "VEC2", "max" : [0.9995005130767822, -0], "min" : [0.0004994869232177734, -1.0000001192092896]}, {"bufferView" : 0, "byteOffset" : 591876, "componentType" : 5125, "count" : 260466, "type" : "SCALAR", "max" : [260465], "min" : [0]}, {"bufferView" : 7, "byteOffset" : 0, "componentType" : 5126, "count" : 260466, "type" : "VEC3", "max" : [776.4284057617188, 700.0581665039062, 2898.53857421875], "min" : [-776.0856323242188, -756.158447265625, 672.84130859375]}, {"bufferView" : 7, "byteOffset" : 12, "componentType" : 5126, "count" : 260466, "type" : "VEC3", "max" : [0.9999944567680359, 0.9999852180480957, 0.999936580657959], "min" : [-0.9999493360519409, -0.9999477863311768, -0.9995744824409485]}, {"bufferView" : 7, "byteOffset" : 24, "componentType" : 5126, "count" : 260466, "type" : "VEC2", "max" : [0.9995005130767822, -0], "min" : [0.0004994869232177734, -1.0000001192092896]}, {"bufferView" : 0, "byteOffset" : 1633740, "componentType" : 5123, "count" : 26712, "type" : "SCALAR", "max" : [26711], "min" : [0]}, {"bufferView" : 8, "byteOffset" : 0, "componentType" : 5126, "count" : 26712, "type" : "VEC3", "max" : [82.5826644897461, 104.56497955322266, 410.6211853027344], "min" : [-115.2894058227539, -106.91075897216797, 0.0011583876330405474]}, {"bufferView" : 8, "byteOffset" : 12, "componentType" : 5126, "count" : 26712, "type" : "VEC3", "max" : [0.99983811378479, 0.9999707937240601, 0.8129628300666809], "min" : [-0.9998802542686462, -0.9999912977218628, -0.8976066708564758]}, {"bufferView" : 8, "byteOffset" : 24, "componentType" : 5126, "count" : 26712, "type" : "VEC2", "max" : [0.9995005130767822, -0], "min" : [0.0004994869232177734, -1.0000001192092896]}], "asset" : {"generator" : "Aspose.3D 20.9.1", "version" : "2.0"}, "buffers" : [{"uri" : "buffer.bin", "byteLength" : 16847712}], "bufferViews" : [{"buffer" : 0, "byteOffset" : 0, "byteLength" : 1687164, "target" : 34963}, {"buffer" : 0, "byteOffset" : 1687168, "byteLength" : 155904, "byteStride" : 32, "target" : 34962}, {"buffer" : 0, "byteOffset" : 1843076, "byteLength" : 49920, "byteStride" : 32, "target" : 34962}, {"buffer" : 0, "byteOffset" : 1893000, "byteLength" : 245760, "byteStride" : 32, "target" : 34962}, {"buffer" : 0, "byteOffset" : 2138764, "byteLength" : 1109952, "byteStride" : 32, "target" : 34962}, {"buffer" : 0, "byteOffset" : 3248720, "byteLength" : 910080, "byteStride" : 32, "target" : 34962}, {"buffer" : 0, "byteOffset" : 4158804, "byteLength" : 3499200, "byteStride" : 32, "target" : 34962}, {"buffer" : 0, "byteOffset" : 7658008, "byteLength" : 8334912, "byteStride" : 32, "target" : 34962}, {"buffer" : 0, "byteOffset" : 15992924, "byteLength" : 854784, "byteStride" : 32, "target" : 34962}], "materials" : [{"pbrMetallicRoughness" : {"baseColorFactor" : [0, 0, 0, 1], "metallicFactor" : 0, "roughnessFactor" : 0}, "emissiveFactor" : [0, 0, 0], "alphaMode" : "OPAQUE", "doubleSided" : false}, {"pbrMetallicRoughness" : {"baseColorFactor" : [0, 0, 0, 1], "metallicFactor" : 0, "roughnessFactor" : 0}, "emissiveFactor" : [0, 0, 0], "alphaMode" : "OPAQUE", "doubleSided" : false}, {"pbrMetallicRoughness" : {"baseColorFactor" : [0, 0, 0, 1], "metallicFactor" : 0, "roughnessFactor" : 0}, "emissiveFactor" : [0, 0, 0], "alphaMode" : "OPAQUE", "doubleSided" : false}, {"pbrMetallicRoughness" : {"baseColorFactor" : [0, 0, 0, 1], "metallicFactor" : 0, "roughnessFactor" : 0}, "emissiveFactor" : [0, 0, 0], "alphaMode" : "OPAQUE", "doubleSided" : false}, {"pbrMetallicRoughness" : {"baseColorFactor" : [0, 0, 0, 1], "metallicFactor" : 0, "roughnessFactor" : 0}, "emissiveFactor" : [0, 0, 0], "alphaMode" : "OPAQUE", "doubleSided" : false}, {"pbrMetallicRoughness" : {"baseColorFactor" : [0, 0, 0, 1], "metallicFactor" : 0, "roughnessFactor" : 0}, "emissiveFactor" : [0, 0, 0], "alphaMode" : "OPAQUE", "doubleSided" : false}, {"pbrMetallicRoughness" : {"baseColorFactor" : [0, 0, 0, 1], "metallicFactor" : 0, "roughnessFactor" : 0}, "emissiveFactor" : [0, 0, 0], "alphaMode" : "OPAQUE", "doubleSided" : false}, {"pbrMetallicRoughness" : {"baseColorFactor" : [0, 0, 0, 1], "metallicFactor" : 0, "roughnessFactor" : 0}, "emissiveFactor" : [0, 0, 0], "alphaMode" : "OPAQUE", "doubleSided" : false}], "meshes" : [{"primitives" : [{"attributes" : {"POSITION" : 1, "NORMAL" : 2, "TEXCOORD_0" : 3}, "indices" : 0, "material" : 0, "mode" : 4}, {"attributes" : {"POSITION" : 5, "NORMAL" : 6, "TEXCOORD_0" : 7}, "indices" : 4, "material" : 1, "mode" : 4}, {"attributes" : {"POSITION" : 9, "NORMAL" : 10, "TEXCOORD_0" : 11}, "indices" : 8, "material" : 2, "mode" : 4}]}, {"primitives" : [{"attributes" : {"POSITION" : 13, "NORMAL" : 14, "TEXCOORD_0" : 15}, "indices" : 12, "material" : 3, "mode" : 4}, {"attributes" : {"POSITION" : 17, "NORMAL" : 18, "TEXCOORD_0" : 19}, "indices" : 16, "material" : 4, "mode" : 4}, {"attributes" : {"POSITION" : 21, "NORMAL" : 22, "TEXCOORD_0" : 23}, "indices" : 20, "material" : 5, "mode" : 4}, {"attributes" : {"POSITION" : 25, "NORMAL" : 26, "TEXCOORD_0" : 27}, "indices" : 24, "material" : 6, "mode" : 4}, {"attributes" : {"POSITION" : 29, "NORMAL" : 30, "TEXCOORD_0" : 31}, "indices" : 28, "material" : 7, "mode" : 4}]}], "nodes" : [{"matrix" : [1, 0, 0, 0, 0, -2.220446049250313E-16, -1.0000000000000002, 0, 0, 1.0000000000000002, -2.220446049250313E-16, 0, 0, 0, -1.5975014321156777E-05, 1], "mesh" : 0, "name" : "plant_247_00"}, {"matrix" : [1, 0, 0, 0, 0, -2.220446049250313E-16, -1.0000000000000002, 0, 0, 1.0000000000000002, -2.220446049250313E-16, 0, 0, 650.1213989257812, -3.0477317523036618E-06, 1], "mesh" : 1, "name" : "plant_247_01"}], "scene" : 0, "scenes" : [{"nodes" : [0, 1]}]}