<svg width="24" height="24" viewBox="0 0 24 24" fill="none" xmlns="http://www.w3.org/2000/svg">
<path d="M12.072 11.0328L3.41639 2.37779L3.41632 2.37773C3.11748 2.07927 2.63365 2.07927 2.33481 2.37773L2.33475 2.37779C2.03589 2.67665 2.03589 3.16089 2.33475 3.45974L2.33475 3.45974L10.9248 12.0495L2.34088 20.6334C2.04203 20.9322 2.04203 21.4164 2.34088 21.7153C2.49026 21.865 2.68651 21.9394 2.8817 21.9394C3.07724 21.9394 3.27317 21.865 3.42252 21.7153L12.072 11.0328ZM12.072 11.0328L20.7268 2.37749C21.0254 2.0789 21.5096 2.079 21.8084 2.37742L21.8084 2.37749C22.1073 2.67634 22.1073 3.16058 21.8084 3.45943L13.219 12.0495L21.8026 20.6334C22.1015 20.9322 22.1015 21.4164 21.8026 21.7153C21.6532 21.865 21.457 21.9394 21.2618 21.9394C21.0664 21.9394 20.8705 21.8649 20.721 21.7153L12.0717 13.0661L3.42265 21.7152L12.072 11.0328Z" fill="white" stroke="white" stroke-width="0.294413"/>
</svg>
