<?xml version="1.0" encoding="UTF-8"?>
<svg width="90px" height="88px" viewBox="0 0 90 88" version="1.1" xmlns="http://www.w3.org/2000/svg" xmlns:xlink="http://www.w3.org/1999/xlink">
    <!-- Generator: Sketch 64 (93537) - https://sketch.com -->
    <title>ic_camera_blob@1x</title>
    <desc>Created with Sketch.</desc>
    <g id="Page-1" stroke="none" stroke-width="1" fill="none" fill-rule="evenodd">
        <g id="Desktop" transform="translate(-1349.000000, -79.000000)">
            <g id="ic_camera_blob" transform="translate(1349.000000, 80.000000)">
                <path d="M47.8562158,0.571754652 C59.6739057,1.43869146 71.215508,6.50529753 78.9772711,14.5493341 C86.7304954,22.5862646 90.7174003,33.6006257 87.4562929,46.4128147 C84.5324677,57.8961743 76.9855976,68.1146589 68.6652551,75.3557131 C64.5068628,78.9726871 60.1641748,81.836421 56.124614,83.7408395 C52.077226,85.6523641 48.364274,86.5832553 45.4553918,86.3700741 C31.5094076,85.3539105 18.7887403,79.9106843 10.4876101,71.6889967 C2.19573026,63.4744152 -1.68657442,52.4884783 1.99079922,40.3087268 C2.1509016,39.7828799 2.3124271,39.2428209 2.47608731,38.6956559 C4.92885568,30.5166046 7.85268082,20.7671186 13.9849575,13.1423383 C20.5000568,5.04145342 30.6633555,-0.678908278 47.8562158,0.571754652 Z" id="Path" stroke="#E0DFE1"></path>
                <path d="M29.7182508,27.1755183 C29.2071478,24.7564856 26.2073795,24.0706014 23.8515671,24.8376117 C20.4244693,25.9586269 20.9288027,28.3481591 21.1860466,29.9559308 C21.5609118,32.3085876 24.6579928,33.075598 27.4335189,32.1684607 C28.6207333,31.7775804 30.1751971,29.3364225 29.7182508,27.1755183 Z" id="Path" fill="#24F4CD" fill-rule="nonzero"></path>
                <g id="Group" transform="translate(28.200000, 32.538889)">
                    <circle id="Oval" cx="5.157" cy="10.64092" r="1.74528"></circle>
                    <path d="M15.84,10.46776 C11.84868,10.46776 8.6112,13.7038 8.6112,17.69692 C8.6112,21.68824 11.84868,24.92464 15.84,24.92464 C19.83204,24.92464 23.06916,21.6886 23.06916,17.69692 C23.06916,13.7038 19.83204,10.46776 15.84,10.46776 Z M15.84,22.11736 C13.39884,22.11736 11.41848,20.13808 11.41848,17.69656 C11.41848,15.25432 13.39848,13.27504 15.84,13.27504 C18.28188,13.27504 20.26152,15.25432 20.26152,17.69656 C20.26152,20.13772 18.28188,22.11736 15.84,22.11736 Z" id="Shape"></path>
                    <path d="M21.31416,2.19204 L20.22336,0.55656 C20.0196,0.24948 19.55232,-4.97379915e-14 19.1844,-4.97379915e-14 L12.49596,-4.97379915e-14 C12.12732,-4.97379915e-14 11.66004,0.24948 11.45484,0.55692 L10.36512,2.1924 L3.4488,2.1924 C1.74024,2.1924 0.34992,3.582 0.34992,5.28984 L0.34992,21.81312 C0.34992,23.52204 1.74024,24.91236 3.4488,24.91236 L28.23228,24.91236 C29.94048,24.91236 31.33008,23.52204 31.33008,21.81312 L31.33008,5.28984 C31.33008,3.582 29.94048,2.1924 28.23228,2.1924 L21.31416,2.1924 L21.31416,2.19204 Z M5.157,8.24184 C4.19328,8.24184 3.41172,7.46064 3.41172,6.49656 C3.41172,5.53248 4.19292,4.75128 5.157,4.75128 C6.12108,4.75128 6.90228,5.53248 6.90228,6.49656 C6.90228,7.46064 6.12108,8.24184 5.157,8.24184 Z M15.84,20.78028 C11.84868,20.78028 8.6112,17.54424 8.6112,13.55256 C8.6112,9.55944 11.84868,6.3234 15.84,6.3234 C19.83204,6.3234 23.06916,9.55944 23.06916,13.55256 C23.06916,17.54424 19.83204,20.78028 15.84,20.78028 Z" id="Shape" fill="#38157B" fill-rule="nonzero"></path>
                    <circle id="Oval" fill="#38157B" fill-rule="nonzero" cx="15.84" cy="13.5522" r="4.42116"></circle>
                </g>
            </g>
        </g>
    </g>
</svg>