<?xml version="1.0" encoding="UTF-8"?>
<svg width="35px" height="28px" viewBox="0 0 35 28" version="1.1" xmlns="http://www.w3.org/2000/svg" xmlns:xlink="http://www.w3.org/1999/xlink">
    <!-- Generator: Sketch 64 (93537) - https://sketch.com -->
    <title>ic_camera@1x</title>
    <desc>Created with Sketch.</desc>
    <g id="Page-1" stroke="none" stroke-width="1" fill="none" fill-rule="evenodd">
        <g id="Desktop" transform="translate(-1423.000000, -221.000000)">
            <g id="ic_camera" transform="translate(1420.000000, 214.000000)">
                <rect id="Rectangle" fill-opacity="0" fill="#FFFFFF" x="0" y="0" width="42" height="42"></rect>
                <g id="cam" transform="translate(3.500000, 7.000000)">
                    <circle id="Oval" cx="5.64046875" cy="11.6385062" r="1.9089"></circle>
                    <path d="M17.325,11.4491125 C12.9594937,11.4491125 9.4185,14.9885312 9.4185,19.3560062 C9.4185,23.7215125 12.9594937,27.261325 17.325,27.261325 C21.6912937,27.261325 25.2318937,23.7219062 25.2318937,19.3560062 C25.2318937,14.9885312 21.6912937,11.4491125 17.325,11.4491125 Z M17.325,24.1908625 C14.6549812,24.1908625 12.4889625,22.026025 12.4889625,19.3556125 C12.4889625,16.6844125 14.6545875,14.519575 17.325,14.519575 C19.9958062,14.519575 22.1610375,16.6844125 22.1610375,19.3556125 C22.1610375,22.0256312 19.9958062,24.1908625 17.325,24.1908625 Z" id="Shape"></path>
                    <path d="M23.3123625,2.39754375 L22.1193,0.6087375 C21.8964375,0.27286875 21.38535,-5.44009282e-14 20.9829375,-5.44009282e-14 L13.6674562,-5.44009282e-14 C13.2642562,-5.44009282e-14 12.7531687,0.27286875 12.5287312,0.60913125 L11.33685,2.3979375 L3.772125,2.3979375 C1.9033875,2.3979375 0.382725,3.9178125 0.382725,5.7857625 L0.382725,23.8581 C0.382725,25.7272312 1.9033875,27.2478937 3.772125,27.2478937 L30.8790562,27.2478937 C32.7474,27.2478937 34.267275,25.7272312 34.267275,23.8581 L34.267275,5.7857625 C34.267275,3.9178125 32.7474,2.3979375 30.8790562,2.3979375 L23.3123625,2.3979375 L23.3123625,2.39754375 Z M5.64046875,9.0145125 C4.5864,9.0145125 3.73156875,8.160075 3.73156875,7.1056125 C3.73156875,6.05115 4.58600625,5.1967125 5.64046875,5.1967125 C6.69493125,5.1967125 7.54936875,6.05115 7.54936875,7.1056125 C7.54936875,8.160075 6.69493125,9.0145125 5.64046875,9.0145125 Z M17.325,22.7284312 C12.9594937,22.7284312 9.4185,19.1890125 9.4185,14.8231125 C9.4185,10.4556375 12.9594937,6.91621875 17.325,6.91621875 C21.6912937,6.91621875 25.2318937,10.4556375 25.2318937,14.8231125 C25.2318937,19.1890125 21.6912937,22.7284312 17.325,22.7284312 Z" id="Shape" fill="#38157B" fill-rule="nonzero"></path>
                    <circle id="Oval" fill="#38157B" fill-rule="nonzero" cx="17.325" cy="14.8227188" r="4.83564375"></circle>
                </g>
            </g>
        </g>
    </g>
</svg>