<svg width="24" height="24" viewBox="0 0 24 24" fill="none" xmlns="http://www.w3.org/2000/svg">
<path d="M10.9915 2.60611L4.78996 6.38095H0.889251C0.508169 6.38095 0.199219 6.6899 0.199219 7.07098V17.3755C0.199219 17.7565 0.508169 18.0655 0.889251 18.0655H4.78996L10.9914 21.8403C12.3713 22.6803 14.1379 21.688 14.1379 20.0721V4.37438C14.1379 2.75897 12.3717 1.76592 10.9915 2.60611ZM1.57928 7.76102H4.29341V16.6854H1.57928V7.76102ZM12.7578 20.0721C12.7578 20.6102 12.1696 20.9419 11.709 20.6615L5.67347 16.9877V7.45878L11.709 3.785C12.1687 3.50513 12.7578 3.83519 12.7578 4.37443V20.0721Z" fill="white"/>
<path d="M17.9787 8.35397C17.7093 8.08449 17.2724 8.08449 17.0029 8.35397C16.7334 8.62345 16.7334 9.06033 17.0029 9.32981C18.5992 10.9261 18.5992 13.5236 17.0029 15.1199C16.7334 15.3894 16.7334 15.8262 17.0029 16.0957C17.2723 16.3652 17.7092 16.3653 17.9787 16.0957C20.1131 13.9613 20.1131 10.4884 17.9787 8.35397Z" fill="white"/>
<path d="M21.2405 6.27145C20.971 6.00197 20.5341 6.00197 20.2646 6.27145C19.9951 6.54093 19.9951 6.97781 20.2646 7.24729C23.0554 10.0381 23.0554 14.4102 20.2646 17.201C19.9951 17.4705 19.9951 17.9074 20.2646 18.1768C20.534 18.4463 20.971 18.4464 21.2405 18.1768C24.5882 14.8291 24.5917 9.62275 21.2405 6.27145Z" fill="white"/>
</svg>
