<svg width="25" height="24" viewBox="0 0 25 24" fill="none" xmlns="http://www.w3.org/2000/svg">
<path d="M11.7922 2.60611L5.59074 6.38095H1.69003C1.30895 6.38095 1 6.6899 1 7.07098V17.3755C1 17.7565 1.30895 18.0655 1.69003 18.0655H5.59074L11.7922 21.8403C13.1721 22.6803 14.9387 21.688 14.9387 20.0721V4.37438C14.9387 2.75897 13.1724 1.76592 11.7922 2.60611V2.60611ZM2.38006 7.76102H5.09419V16.6854H2.38006V7.76102ZM13.5586 20.0721C13.5586 20.6102 12.9704 20.9419 12.5097 20.6615L6.47426 16.9877V7.45878L12.5097 3.785C12.9695 3.50513 13.5586 3.83519 13.5586 4.37443V20.0721Z" fill="white"/>
<path d="M1 1L24 23" stroke="white"/>
<path d="M18.7795 8.35397C18.5101 8.08449 18.0732 8.08449 17.8037 8.35397C17.5342 8.62345 17.5342 9.06033 17.8037 9.32981C19.4 10.9261 19.4 13.5236 17.8037 15.1199C17.5342 15.3894 17.5342 15.8262 17.8037 16.0957C18.0731 16.3652 18.51 16.3653 18.7795 16.0957C20.9139 13.9613 20.9139 10.4884 18.7795 8.35397Z" fill="white"/>
<path d="M22.0412 6.27145C21.7718 6.00197 21.3349 6.00197 21.0654 6.27145C20.7959 6.54093 20.7959 6.97781 21.0654 7.24729C23.8562 10.0381 23.8562 14.4102 21.0654 17.201C20.7959 17.4705 20.7959 17.9074 21.0654 18.1768C21.3348 18.4463 21.7718 18.4464 22.0412 18.1768C25.389 14.8291 25.3925 9.62275 22.0412 6.27145V6.27145Z" fill="white"/>
</svg>
